<svg xmlns="http://www.w3.org/2000/svg" xmlns:xlink="http://www.w3.org/1999/xlink" version="1.1" width="841.8898pt" height="595.2756pt" viewBox="0 0 841.8898 595.2756">
<g id="layer_1" data-name="Layer 1">
<path transform="matrix(1,0,0,-1,0,595.2756)" stroke-width=".5669" stroke-linecap="butt" stroke-miterlimit="22.925585" stroke-linejoin="miter" fill="none" stroke="#1a1a18" d="M63.4204 550.4329H778.4694V44.8427H63.4204Z"/>
<path transform="matrix(1,0,0,-1,0,595.2756)" d="M196.5336 369.7047H156.1326C145.131 369.7047 141.8618 364.4014 141.8618 357.266 141.8618 350.1309 141.8618 338.9457 141.8618 338.9457 141.8618 338.9457 140.6568 331.8106 134.2449 331.8106 127.8326 331.8106 117.9488 331.8106 117.9488 331.8106 117.9488 331.8106 104.3529 327.7123 104.3529 318.3111 104.3529 308.91 104.3529 278.3378 104.3529 278.3378 104.3529 278.3378 105.9917 264.2763 117.7228 264.2763 129.4543 264.2763 134.115 287.9802 140.2217 300.9169 146.3287 313.8534 165.1306 346.195 174.4112 352.7036 183.6921 359.2123 182.7278 356.3195 182.7278 352.7036 182.7278 349.0877 181.8842 341.5748 181.9644 340.289 182.0449 339.0032 186.2626 333.9814 195.1013 331.8925 203.94 329.8034 207.2344 321.4868 209.9262 317.9511 212.6183 314.4158 219.9302 313.2507 224.189 312.6881 228.4475 312.1257 229.1304 311.2016 228.7287 307.9071 228.327 304.6127 226.3589 291.9574 216.0337 290.9531 205.7085 289.9488 199.8026 290.6317 199.8026 290.6317 199.8026 290.6317 189.235 287.2973 196.0651 274.0391 200.0208 266.3603 211.248 264.8052 222.3428 264.8052 237.1311 264.8052 248.2328 264.9861 248.2328 281.2235 248.2328 284.1812 248.2328 316.8867 248.2328 316.8867 248.2328 316.8867 245.3389 331.5909 233.3265 331.7117 221.3138 331.8321 216.6123 331.3505 216.0499 331.7522 215.4875 332.1541 210.4251 334.4845 210.4251 339.9483 210.4251 345.4123 214.2748 369.7047 196.5336 369.7047" fill="#e3000f" fill-rule="evenodd"/>
<path transform="matrix(1,0,0,-1,0,595.2756)" d="M178.8463 328.0771C178.8463 328.0771 180.6344 328.981 180.6344 324.5417 180.6344 320.1021 182.0608 319.1788 186.6206 317.0897 191.1804 315.0006 192.7074 311.5259 193.0691 309.0552 193.4308 306.5842 196.4035 303.5718 198.1511 301.5227 199.8989 299.4738 197.4078 293.468 188.8906 290.2941 180.373 287.1201 175.1907 284.1874 176.3957 278.9243 177.601 273.6609 193.1485 264.8222 197.166 257.9522 201.1839 251.0821 204.3969 235.6951 202.1471 230.7937 199.8972 225.8923 189.7727 225.5709 186.9605 225.5709 184.1482 225.5709 160.437 225.5709 156.8285 225.5709 153.2203 225.5709 141.5616 227.5798 141.5616 242.445 141.5616 257.3099 139.7132 310.0209 178.8463 328.0771" fill="#e3000f" fill-rule="evenodd"/>
<path transform="matrix(1,0,0,-1,0,595.2756)" d="M289.5219 225.9238 265.9966 277.9852H281.8423L293.1097 248.8598C293.2152 248.5565 293.4272 247.8163 293.7591 246.6391 294.0783 245.4622 294.5041 243.8844 295.0237 241.8939 295.4018 243.4836 295.7559 244.9159 296.0991 246.1901 296.4291 247.4762 296.6876 248.3623 296.8483 248.8598L307.41 277.9852H323.2562L300.8769 225.9238ZM334.7161 225.9238 334.1426 277.9852H367.6717L367.7973 266.5536H348.8134L348.9126 257.5247H366.8125L366.935 246.384H349.035L349.1323 237.5736H368.1162L368.2446 225.9238ZM392.4383 225.9238 392.0006 265.6797H379.7527L379.6174 277.9852H419.0406L419.1761 265.6797H406.9281L407.3658 225.9238ZM433.3459 225.9238 432.7727 277.9852H466.3012L466.4273 266.5536H447.4431L447.5424 257.5247H465.4423L465.5648 246.384H447.6648L447.762 237.5736H466.7462L466.8746 225.9238ZM483.1838 225.9238 482.6106 277.9852H498.227C504.3254 277.9852 508.5896 277.7182 510.9939 277.1844 513.3986 276.6504 515.4883 275.7523 517.2497 274.5023 519.23 273.0824 520.7683 271.262 521.8515 269.0657 522.9346 266.8569 523.4842 264.4296 523.5137 261.7722 523.5582 257.743 522.5477 254.4667 520.4959 251.9425 518.4317 249.4182 515.4134 247.7435 511.429 246.9183L526.5876 225.9238H509.7467L496.9681 246.3111 497.1923 225.9238ZM496.8901 253.3742H499.6457C502.8613 253.3742 505.203 253.8964 506.6711 254.9398 508.1397 255.9832 508.862 257.622 508.8373 259.8426 508.8087 262.4516 508.0995 264.3083 506.7091 265.4127 505.3062 266.5174 502.9909 267.0633 499.7251 267.0633H496.7393ZM539.0943 225.9238 538.5214 277.9852H553.602L554.1749 225.9238ZM540.4552 290.0602C540.4399 291.4557 540.9751 292.6933 542.073 293.7736 543.1711 294.8536 544.4413 295.3877 545.8955 295.3877 547.4395 295.3877 548.7593 294.8658 549.8677 293.8224 550.9766 292.7784 551.5387 291.5283 551.5551 290.0602 551.5716 288.5431 551.0625 287.2811 550.0148 286.2737 548.9671 285.2666 547.6329 284.7569 546.0129 284.7569 544.5071 284.7569 543.2128 285.2787 542.1169 286.3222 541.021 287.3659 540.4714 288.6038 540.4552 290.0602ZM572.6273 225.9238 572.0545 277.9852H586.4454L607.4342 251.214C607.8356 250.6683 608.4986 249.5639 609.4227 247.9133 610.3593 246.2751 611.3761 244.309 612.4983 242.0277 612.1811 244.1877 611.943 246.1054 611.784 247.7917 611.6255 249.4789 611.545 250.9713 611.5306 252.2699L611.2477 277.9852H625.5629L626.1358 225.9238H611.8206L590.8433 252.8042C590.404 253.3501 589.7282 254.4545 588.8044 256.0927 587.8675 257.743 586.8641 259.6847 585.7676 261.9179 586.0851 259.7332 586.3232 257.8039 586.482 256.117 586.641 254.4301 586.7212 252.9374 586.7354 251.6389L587.0186 225.9238ZM644.2948 225.9238 643.7217 277.9852H677.2504L677.3763 266.5536H658.3921L658.4913 257.5247H676.3912L676.514 246.384H658.614L658.711 237.5736H677.6952L677.8236 225.9238ZM694.1327 225.9238 693.5596 277.9852H709.1759C715.2744 277.9852 719.5385 277.7182 721.9429 277.1844 724.3475 276.6504 726.4372 275.7523 728.1986 274.5023 730.1792 273.0824 731.7173 271.262 732.8004 269.0657 733.8835 266.8569 734.4332 264.4296 734.4626 261.7722 734.5071 257.743 733.4972 254.4667 731.4452 251.9425 729.3807 249.4182 726.3624 247.7435 722.378 246.9183L737.5365 225.9238H720.6956L707.917 246.3111 708.1413 225.9238ZM707.8391 253.3742H710.5946C713.8103 253.3742 716.152 253.8964 717.6206 254.9398 719.0887 255.9832 719.8109 257.622 719.7863 259.8426 719.7579 262.4516 719.0484 264.3083 717.658 265.4127 716.2554 266.5174 713.9401 267.0633 710.674 267.0633H707.6889Z" fill="#e3000f"/>
<path transform="matrix(1,0,0,-1,0,595.2756)" d="M266.5998 307.3419 265.9966 367.9946H281.7113L282.1737 321.5081H301.6763L301.8172 307.3419ZM370.7855 337.5408C370.8289 333.1723 370.1041 329.0862 368.6241 325.283 367.1442 321.4658 364.962 318.0586 362.0775 315.0471 359.1658 312.0639 355.8305 309.7735 352.0726 308.1475 348.3145 306.536 344.4004 305.7301 340.344 305.7301 336.2204 305.7301 332.2636 306.536 328.487 308.1475 324.7098 309.7735 321.3828 312.0639 318.4923 315.0471 315.4941 318.0586 313.217 321.4797 311.6341 325.3252 310.0649 329.1571 309.2584 333.2288 309.2156 337.5408 309.1725 341.8812 309.8976 345.9529 311.3906 349.7845 312.8975 353.6016 315.1066 357.0231 318.0447 360.0346 320.8762 363.0178 324.1573 365.3082 327.9022 366.9338 331.6467 368.5459 335.5877 369.3518 339.7113 369.3518 343.794 369.3518 347.7512 368.5459 351.5547 366.9338 355.3586 365.3082 358.7125 363.0178 361.6299 360.0346 364.5473 357.0514 366.7839 353.6442 368.3667 349.7987 369.9363 345.9671 370.7425 341.8812 370.7855 337.5408ZM340.1779 319.7268C344.5296 319.7268 348.1123 321.4091 350.9263 324.7741 353.7403 328.153 355.1219 332.4087 355.0706 337.5408 355.0204 342.6168 353.541 346.858 350.6193 350.265 347.6976 353.6583 344.0945 355.3549 339.8236 355.3549 335.4718 355.3549 331.8888 353.6583 329.0749 350.2794 326.2612 346.9003 324.8799 342.6449 324.9306 337.5408 324.9822 332.352 326.4214 328.0825 329.262 324.7458 332.1026 321.395 335.7454 319.7268 340.1779 319.7268ZM384.7757 307.3419 384.1724 367.9946H399.3231L421.4191 336.8058C421.8418 336.1694 422.5397 334.8828 423.5125 332.96 424.4987 331.0515 425.5688 328.7611 426.7502 326.103 426.4163 328.6196 426.1657 330.8536 425.9985 332.8186 425.8315 334.7838 425.7468 336.5226 425.732 338.036L425.4338 367.9946H440.5039L441.1071 307.3419H426.0373L403.9532 338.6577C403.4903 339.2938 402.7788 340.5804 401.8062 342.4893 400.8203 344.4117 399.7636 346.674 398.6093 349.2754 398.9435 346.7307 399.1944 344.4826 399.3616 342.5173 399.5289 340.5523 399.6133 338.813 399.6283 337.3004L399.9266 307.3419ZM457.2955 307.3419 456.692 367.9946H468.6996C477.6452 367.9946 483.9755 367.556 487.6914 366.6651 491.4207 365.7886 494.6859 364.3044 497.5135 362.2402 501.1937 359.5541 503.9949 356.1185 505.9165 351.9473 507.8523 347.7626 508.8396 342.9839 508.8929 337.6259 508.9462 332.2672 508.0535 327.5028 506.2014 323.318 504.3626 319.1329 501.6297 315.6976 498.0033 313.0112 495.2429 310.9754 492.0877 309.5189 488.5237 308.6422 484.973 307.7799 479.4437 307.3419 471.9492 307.3419H469.3028ZM472.7137 320.9142H475.3463C481.5113 320.9142 486.0111 322.2431 488.8188 324.9156 491.6259 327.5734 492.9942 331.8009 492.9367 337.6117 492.8788 343.408 491.4266 347.6494 488.5656 350.3639 485.7046 353.0645 481.178 354.4217 475.0132 354.4217H472.3804ZM522.8977 307.3419 522.2942 367.9946H538.734C545.1545 367.9946 549.6437 367.6833 552.1751 367.0614 554.7061 366.4392 556.9058 365.3929 558.7605 363.9368 560.8454 362.2827 562.4649 360.1621 563.6052 357.6027 564.7456 355.0297 565.3242 352.2019 565.3548 349.1059 565.4018 344.4117 564.3383 340.5949 562.1786 337.6542 560.0049 334.713 556.8273 332.7622 552.6329 331.8009L568.5911 307.3419H550.8615L537.4089 331.094 537.6453 307.3419ZM537.3272 339.3221H540.2285C543.613 339.3221 546.0783 339.9301 547.6243 341.1459 549.1701 342.362 549.9303 344.2703 549.9045 346.858 549.8742 349.8976 549.1276 352.0604 547.664 353.3474 546.1875 354.634 543.75 355.2701 540.3112 355.2701H537.1685ZM593.4453 329.9907H609.0664L602.9974 350.0107C602.8169 350.6187 602.5521 351.5944 602.2295 352.9514 601.8939 354.3086 601.4735 356.0479 600.9557 358.1685 600.6345 356.6837 600.313 355.2559 599.9907 353.8984 599.6815 352.5554 599.3589 351.2548 599.0352 350.0107ZM571.6568 307.3419 590.9451 367.9946H610.6224L631.131 307.3419H615.5101L612.4876 318.2H590.178L587.2907 307.3419Z" fill="#e3000f"/>
</g>
</svg>
